<svg xmlns="http://www.w3.org/2000/svg" version="1.1" xmlns:xlink="http://www.w3.org/1999/xlink" xmlns:svgjs="http://svgjs.dev/svgjs" width="100%" height="100%" viewBox="0 0 1000 600"><rect width="1000" height="600" x="0" y="0" fill="#234e70"/><g><rect width="333.3333333333333" height="333.3333333333333" rx="13.333333333333334" ry="13.333333333333334" y="77.77780045403293" fill="#fbf8be" transform="matrix(2.25000013732911,0,0,2.25000013732911,0,-250.00003738403575)" x="55.555564880371094"/><path d="M212.74329497966133 169.4444598532611Q240.62073870038213 169.4444598532611 255.85960164533148 181.0852579362085Q271.09846459028074 192.7562918583324 271.09846459028074 215.82623714999178L271.09846459028074 215.82623714999178Q271.09846459028074 240.40797440047552 255.19441318344875 252.38136671436425Q239.3205976157932 264.35475902825306 212.95494585389673 264.35475902825306L212.95494585389673 264.35475902825306L194.027310529416 264.35475902825306L194.027310529416 319.44445800781193L173.34599653269908 319.44445800781193L173.34599653269908 169.4444598532611L212.74329497966133 169.4444598532611ZM212.1083423569551 248.0274058729502Q230.1591383453177 248.0274058729502 239.6229560075581 241.0731628623582Q249.11700950897492 234.11891985176626 249.11700950897492 216.03788802422716L249.11700950897492 216.03788802422716Q249.11700950897492 199.92218574315976 239.6229560075581 192.7562918583324Q230.1591383453177 185.56016213432852 212.53164410542593 185.56016213432852L212.53164410542593 185.56016213432852L194.027310529416 185.56016213432852L194.027310529416 248.0274058729502L212.1083423569551 248.0274058729502Z " fill="#234e70" transform="matrix(2.25000013732911,0,0,2.25000013732911,0,-250.00003738403575)"/><path d="MNaN 244.4444580078119 " fill="#fbf8be" transform="matrix(2.25000013732911,0,0,2.25000013732911,0,-250.00003738403575)"/></g></svg>